<svg width="22" height="22" viewBox="0 0 22 22" fill="none" xmlns="http://www.w3.org/2000/svg">
<path fill-rule="evenodd" clip-rule="evenodd" d="M7.03617 1.03045C9.53316 -0.365998 12.6024 -0.34159 15.0759 1.09438C17.5252 2.55961 19.0138 5.17459 18.9999 7.98759C18.9429 10.7821 17.3467 13.409 15.3515 15.4397C14.1999 16.617 12.9116 17.6581 11.513 18.5416C11.369 18.6218 11.2112 18.6755 11.0475 18.7C10.8899 18.6935 10.7364 18.6487 10.6009 18.5696C8.46566 17.242 6.5924 15.5474 5.07125 13.5674C3.79839 11.9145 3.07524 9.91761 3 7.84786C2.99835 5.02947 4.53917 2.4269 7.03617 1.03045ZM8.47908 9.01426C8.8991 10.0109 9.89053 10.661 10.9905 10.661C11.711 10.666 12.4037 10.3882 12.9141 9.88952C13.4246 9.39084 13.7103 8.7127 13.7078 8.00622C13.7116 6.92784 13.052 5.95355 12.0369 5.53825C11.0218 5.12296 9.85152 5.34858 9.0724 6.10978C8.29328 6.87098 8.05905 8.0176 8.47908 9.01426Z" fill="#316DC2"/>
<path d="M16.7144 20.9C16.7144 21.5075 14.156 22 11 22C7.84411 22 5.28573 21.5075 5.28573 20.9C5.28573 20.2925 7.84411 19.8 11 19.8C14.156 19.8 16.7144 20.2925 16.7144 20.9Z" fill="#316DC2"/>
</svg>
